<mxfile host="app.diagrams.net" modified="2023-11-16T11:13:05.649Z" agent="Mozilla/5.0 (Windows NT 10.0; Win64; x64; rv:109.0) Gecko/20100101 Firefox/119.0" etag="66mr422UCB7YEymJXsh_" version="22.1.2" type="github">
  <diagram name="Page-1" id="3kL500RavvwzNO5WzI7x">
    <mxGraphModel dx="1713" dy="770" grid="0" gridSize="10" guides="1" tooltips="1" connect="1" arrows="1" fold="1" page="0" pageScale="1" pageWidth="850" pageHeight="1100" math="0" shadow="0">
      <root>
        <mxCell id="0" />
        <mxCell id="1" parent="0" />
        <mxCell id="gsH4NiV3uTiKRWeBx2M4-1" value="" style="shape=image;imageAspect=0;aspect=fixed;verticalLabelPosition=bottom;verticalAlign=top;fontSize=16;image=data:image/png,iVBORw0KGgoAAAANSUhEUgAAAqgAAAGhCAYAAACtX0YJAAAAAXNSR0IArs4c6QAAAARnQU1BAACxjwv8YQUAAAAJcEhZcwAAEnQAABJ0Ad5mH3gAAFWuSURBVHhe7Z3hmds4r0a/Am66SS/TyTSSStLH9pRrkgJFQQQJSrKGts+P82xiwxQIgMBrTXb0v//7v//7BwAAAAAwCwhUAAAAAJgKBOob8uvX73/ff//799+fr+r7wq+vP//+++9hJ3TsAQAAAO4gCtSvP4VIqQiWLHiM94+yCqQ//75+/araWNR8/vv9u2p7Bb9+f//7+7jGn68xP0f4/f13t6cS7/68AlUYtQcAAAB4Jps7qEmE/f33/XsrwmoCRgTbUVGzFb0HBerf73+/l8+J2H2WgLxDoJZYufCAQAUAAIBX5rBADaQ7fsdEVPrsQ5hGYXmBQP319e/PCcHcA4EKAAAAcA+nBGq6a5nsyz9vbBZhV/54WsRkeC197nkCdfdj8+J9a19x7eW19o/dt36v/2RhQa07Qk+geve1sSviVdITqFfuCwAAAKDHBXdQk0hrC8StkCvF5VUCNV1n67u+tvbRI1AFEdrWHVS9j7N3dFsCNVzLEvzp78u+wvUlzg1/WgL16n0BAAAA9Dj9b1BLobQXhPbnROidEqhBKGW2a4iQ0oIyXS/t8SqBKuuUsQjUxLmXlkCtUfqc96XumFr+WHF4xr4AAAAAeowJ1I0grIg/LT7VejUhdEqgbu7CboVUKUTLz5U+WsJsXKAudxWrPEeg7gX6Ay1Q9R6smFj2T9gXAAAAQI9TP+KvUYq7eKetuItXE0hXCNT892KdnxCotfeO0hKoeq/5tcXntkDdx7onUK/cFwAAAECPywXqKoLSZ0pxk4RVC79QjWvtxG/x7zANQVmKtNq+TLHWFKj++Hixc7Hc1VTX8ghU/YVBMPf8hH0BAAAA9LheoMpdt++wVl9wWnf1euwEqvjYuqu6+Gb9u9m8RkUAWsJQSOtcd7exm4vdPlffavk6KrCv3hcAAABAjyhQs8DRNARPCxE1+n+uqXGVQA3IXdRSTOm9aZ82onR5P/pf2auIvHW9rd+y7w3OmGksgbq+t16j5nPNFy0yq/5Gtte9cl8AAAAAPTZ3UAEAAAAAfhoEKgAAAABMBQIVAAAAAKYCgQoAAAAAU4FABQAAAICpQKACAAAAwFQgUAEAAABgKhCoAAAAADAVCFQAAAAAmAoEKgAAAABMBQIVAAAAAKYCgQoAAAAAU4FABQAAAICpQKACAAAAwFT879ev3/++//7377//6vz5+vUPm/r7AWywqb0fwAab2vsBbLCpvR/ABpva+4F3tqkK1NqLAAAAAAA/BQIVAAAAAKaCH/FjUwUbbGrvB7DBpvZ+ABtsau8HsMGm9n4g2FQFau1FAAAAAICfAoEKAAAAAFOBQAUAAACAqUCgAgAAAMBUIFABAAAAYCoQqAAAAAAwFQhUAAAAAJgKBCoAAAAATAUCFQAAAACmAoEKAAAAAFPxYwL19/ff9JirP1/V9wEAAADgM9kI1Cwa/37/+/2r/mzUHr9+f//723i2qiDX+vv9u/r+XXz92T4T9tk+eeMDAAAA8KlkgSoP8//zHQTU33/fv58rUGchCtRCkP/6+hNF6rP8R6ACAAAAtFkFahROQZgmoXr0LuLLC9RfX//+PPx/1j89QKACAAAAtMkCNf7IfRFq5Z9L48D2R+Lrndb8zwOq/Pn3pe5QZpQQTO/v7+CKsCuFc28tD16Buttf8b7cfdafiWsvr3njE/Dsa2ej1hDkuj/9TykAAAAAvESBKgJLRMx6N7UQTSLcNmLu8bnvrXjy3iG0RF1bIGqhW/z94J1PLVDTdbZ7311bXcsjUIVefDz7GrkLi0AFAACAVyMJVCVIRRSVokaLNIuzAjWwF4RbW/m7Fl1eH0u2d4QD289LLPR+kpBMMbtKoHr3VV67tAMAAAB4B6JArQk7fWexJrZqXCFQ9RqWgN4KS+GAQF32KT82LwWiJQZLH68TqL595evF1xGqAAAA8F78byt2NO07hDWuEKiBUtxFAV35d6K9a3ioCnHH3cpnClTvvhCqAAAA8I78zxJMIpbkbqIWbhZXCdQkDMP1kl253ohg7qEFqr6LasYn+1cXqJaPbYF6bF9XxgMAAADgp/lfKbTKN7LokR9/L8JqJ8L0/yQlP6buiKWeqMp3E+PvZd37l/5ZQl8I99gJVLXvbFP4oMV7oPxnEnmNShx68Tmyr5o/gqxXew8AAABgRv6nBVpJEjfrj46zuMrUf6ycxWxmFXcimPbs1+qJq+paHWGsqe1f7qKWIjGJ1BXt00aULu9H/yr+tOIT6O2r9n4vRghUAAAAeBXy70EFAAAAAJgBBCoAAAAATAUCFQAAAACmAoEKAAAAAFOBQAUAAACAqUCgAgAAAMBUIFABAAAAYCoQqAAAAAAwFW8tUOMvqTceQvAO5F/YP/hwgmcxmz/wPrz7WQaA55Ln08LZp1DCnqs1wP/Wp0Ntn2aUnqZUf1JUi9az5u/miqG2f+pTYDwuI3hjKMXw7KdEzeYP1OEsw13oJ+cFjtTJTDUGbfTTFDMHxMjdeT/aA2dEYqf7oeRnNKZX5uJqDZAF6t+/fzeLMtQStf08W4jNFMPAbP5AHc4y3IHUxX5Abr8YeaC3vB4pZ+fE3t15bz3S/dXI56/IQfkY+tGYznwGs0D98/1wskggQy1h7SeJ1PGG7GG2gpm5gGGFswzPJt85vSgX9JbXI+XsBQXqm/zTs9jPH+fv+7EniV947e/3VzybozGd+QyuAvUrNJ5CkVeGWnotqfRIkXC5q1gnCblWkegBtFtPfU6S9Lv45hAog6zXlESMDGsrebXXW/ExbQqR64lhdQ0dm2WIhLtomzUrQ6UV56v8EVrXGvEZ6tx5luPnQ25knfDnfL7W2qiuV6mPnT+1NU6eZTjPyDBr5d1TY2LbqtWrZkp6b19LI/v9FFJMKrFy9PCr8p7fj2vbGkDoCdRWbZTEdbJdJQYdn68g7zv8d1n/60/wZY3/xtbwx5sLT5xH9t2LYUkhUJehsyycLrh+OP29cFqcVY60DnR0rCjW3XvLWilw7WuVAZFr6c/Fvy/XywOtEbga1n7kdSkGT3xasSlx28ndDJ0Deb24vviji3fz94pNfP2kP4FeTr0+g43EK+Qp1qPEMdbmtWc5rfH4TDhf0e7vv79/H2uqz3hqzFNfV5xlOI+uJQtP3uPrndz3atU7U3r+WP611v9UUs72NTDSw8/mfbVJ15N1yjlTvr+jyGmvNsrXNp8L+/3W/vT76lnidaIfYf2l58a/p/jnmnb648tFilstzhvbhgbwxFCzFaiy4ceHk1OpCOWiushqTrY2ux8y+/VLf8rPlv6sf9/a6YOTr7f4dKRQrP2In8lnX3z0Hix6BSNYxZBfLwohUDZsi5rNeX/6OT3jMyTuPMvl+RO71vkt0Tn1nIsrzjKcR9dJ+vsjH5F2Dkd7i6dWc12EOo9rteu8RPsT/170H08tfyJlnDevD/Tws3mPdkUPEhvLt5oPLbS9vrZmpK+epaz58Oc/f5LALn0Y8aeVi/j+QJxzDVRifSQWG4EaXgiJCX/eDrVkszaiEv9m05rJPjm7D6Y1rPS65VqlXYlcIzJQnCXWfuT15L8vPjl58fX9HoVWDEusYrBerx3S+NrG373NaX8cOR3xGercf5aXNTd53PoQ6NWY51xccZbhPCkPlbNcOeNne4unVss5YM0UWa9bh8qXcm2xAYlTpQYGevjZvEe7gfzUfCjp1Ubv8yN99SyxzitfysJ74udVfT6+PxBnqwYCvRjW2AnU6GzYfNFwtE2LZuEVwYz/ZuJruVaxfq3RrZ8t/HQELScy2m6blRdrP+n6i88D8Qn0BnIrhiVWMXgbRTqU2xjWiui0P46cen0Gm1vPcrnmJo/b9b01FmidiyvOMpyn7Hv719ecXdFbPLWaPp+ua82UYOfxR/eg8D51tqeM+eb1gR5+Nu+BVHNtDSDUfNi816gNa18lI331LKVA1e+J31f1+fj+QJytWHliWGMvUONCj+L7XhvOyOL9wgtrPv4bA7xcK/xdrmV8XgfJE7QykfHPzoSVWP7EQljWPhp8M5mdghHMzxuvbw9dynvLRjjtjyOnHp+hza1nOeZuf2ZLH0ZqrKTm4xVnGc5j5XRTDxf1Fk+tpmuF6z7+a82UEX9yTwqf8Q3lTyPlLMV287qRr2fkPeDRAILVc7y1Ef/euNZIXz2LT6D6/WnlIr4/EOfWdXsxrLETqIEQgPC7FMtvxN6hYCU8vZecL39PYwr24++F43ojsmb5bdYTNJ3ItG5/DyW15KV1tgfUG5+S2r7K13vFZRWD9boU78amEp/9euf8CfRy6vEZ2khMbznLpSApzkjpw0iNlejaCFxxluEaUu5r/Xiphwt7S69W5VqtmXLIn4ZPn84lAvVk3gMjwqnmQ8BbG9LjNq+Fzxb/g4+3r57F2ot+z+tPLxcjcbZqIL7niKGmKlDXQ1oXYRtajmTWzaXkr+tm26JAVruVnYhzBC01qnXdHLzHet4i2u/lgfJV6MWn9r7el9CKYfU6ETUgVG50YetrBF/i2oM57fkja7Ry6vUZbO48yxtBstiE62ofPDVW80Wfi2hz8izDdezr4kGZH0fe7bW2fb1Xq56ZMuJPut72vMC+f2eWGI728LN5v0KgBry1sfZSYV8jPZ+voLWX+F5R915/Wrlwa63N54VtjDwxLHnrZ/EDAACMEIetcRMCAO4DgQoAAPCg/MlA7X0AuA8EKgAAfDTrj68RpwCzgEAFAAAAgKlAoAIAAADAVCBQAQAAAGAqEKgAAAAAMBUIVAAAAACYCgQqAAAAAEwFAvVm0u/ZW5+koJ+Y4+Vd14HzUGOfS36ii/XUnDfOaWvv+jrWr5PaPRGHX9h/COrwsY7a+/4pSlte+Yl4+/NV39NonBGoNyLJ0Y+BHD0M77oOnIca+0zWeHxVHzcZbd61Nhx71yQRsRWp6bXiEY8iKBzrQYI6HKvDQLr+a//+3bSH9uNQj8QZgXoTzecUD3xLf9d14DzU2GeShFQacFas3rc2+nuvIeIzD0vjs1q0gg11eKQO/bYz0xOoR+OMQL0J+bYgDTG+tjTJkW9P77oOnIcaA2sQfEJOh4RB5fq1YTkqVCBBHe73XuMd7p4GugL1YJwRqDehCzEn7HufuBbvug6chxoDUxh8QE5HhEFNeIoP8nrtnwGAD+qwX4fZ7g2+AKU4PvZSUMbuaJwRqDdRJiglp/yz/yC86zpwHmoMPMJghlw8I6c9YZCuKQM0XW9nI2tEG360fxTqcL93zZlrzI78j2Ly70uPxhmBehM5Qd9rouLrg0X6ruvAeagx6AqDN86pVxgE5Drl/6ChX4t3WZUN+KAO+3X4zv98JMdg2d/ROCNQb0ISob+V58QtCevxruvAeagxMIXBB+R0RKAGSoFgfTaJ1K2P0Ic63O+9RK57RAC/CpvzdTDOCNSbsIo23gof+Bb1ruvAeagxsGL1CTm11rTYCtT0P2zou6XRn4NC5ZOhDvdrlrz7F5/8P0AtMTgaZwTqjaRvC+u3pta3qFTA9SJ/5XXguVBjn01rOL5rbQgeYSDsri2fLURDHrIHhconQx3aNrL+O//TkRSn2t1SX5wFBOrNSJKEWnLWZtko8hdcB+6BGvs88uDcsb3794614dn73mZ/92pzHcHwG+pQhzW2e09273X3NP2kodjziTiXIFABAAAAYCoQqAAAAAAwFQhUAAAAAJgKBCoAAAAATAUCFQAAAACmAoEKAAAAAFOBQAUAAACAqUCgAgAAAMBUIFABAOB29C/tbv1S/PyLwBs2Lc48uhIAfgYE6sX0Gqluykcfd/au69yJfvKHfqrFboBW7Dw2XvCnjV7rnR8V+JPcHef8hB6HQD3qCwL1Xj51DgasvedH5xoc6Yl3oGOjn4xl2Vkx1HatfSNQL2J9vu6X2WwlMZKQo8/kfdd17iSKryJHeg/ra+1H0nlsPOBPG339V6ixVyQN13UA5aFa6WdX4RGoZ0Gg3sN6Lj9wDjr2XiNdvy76ZkT3iIA3hummh38eIFAvIDXxlDCr2Vqvx4QNNM53Xeenqe0jHbp7BJgGf1bepcZmR8SoHioph88boFZ+rwSB+nw+ew72915jxHYWpE9kMeqM4ZFZgEC9GCtZ8o1CkppsU6JHmv+7rvPT1PJ2lwCrgT8r71Jjs5NytY+nxDrEX+ogiNj8o8zACfFn9cz4XvRpuUZA91WnP1qgSk1RP8/ByuknzK9WPWusMzczOmbeGAbBOnpXGoF6MebBVIWYk/q9T26Ld13np5EDVR6gtLdwyFb0fjw2R8CflbTG69fY7CSBt/8yUYrA3N9CLpceV6uNETwD3eyrTn9KgSr107oenMPM10VnebZ1Sjz1HMh2J77c/QT1O6PtGMqZ/POV/pvnQWfvCNSL8RzMlMDyz/6D8K7r/DTx0C2+194PyB2a1iD22HjAn5V3qbHZibmpDAzpaSFn1lCN9XFQ8HkGutlXnf7kvS01c9RX8GHm6wPml6eeA2eucTcpTo89RVKMtu+1YygCtfwC7IkTAvViugfze01mfH2wSN91nZ8kia++aLKG4ahND/zZ8g419gqkLw/OO6iqv2lBmO0e+VlZc1dirVli2Xj9kS9GkcZ14BrMfH3A/PLUcyDW6Im+/FNIbGQeeGK43kHd7jV/ttIXAgjUizEP5pIsPQB6CdK86zo/xegdPU9TOdN48GfPq9fYq5DiuY1xfL0YLl5BOIJnoJt91elPrONQc3GP/nqGY3zaHCxx1fNy3SMCeAbKHu6JYe2f3Wib8nUBgXoxo400N84isS3edZ2fIB2Ove8W+ccUDXuPjQX+1HnlGnslrKGZ6iANHysXLyNQH3uIf67sE65jNF8/NXeuWqfEWrMk1qcSdK/ERqA6Yti0acQBgXoxreKUgS+NsfUtKhXw+60zC+JzbT8WnqbSsvHEEH/a/rxSjb0iKQfrHQ2Js9z5sPpb/NxArZR4Brpl4/VHCw6pNernOXziHBR69azP1Kuh41V7rRbDZFP0luVmRSsOCNSLyIW7Y3v7WhIp1A5BLvBgYxX5C64zC5v9VBDf07e74r3K3j02gVYM8aftT7Z5oRp7ZXTOyjjnPKkcxf5n5M1iVxuZtWf2bLz+xHUKgVrWG3V0HZ88B717T3btL/Izsd9X3XdPDPV57ol0BCoAAAAATAUCFQAAAACmAoEKAAAAAFOBQAUAAACAqUCgAgAAAMBUIFABAAAAYCoQqAAAAAAwFQhUAAAAAJgKBCoAANyO/sXe1i9RD+Rf8N2waaF/UT8AzA8CdYBek9QN9+ijzGZbJ2DtPT9b3eAZT2nRT7bQ19gNvoqdx8YL/rSZzR9oo2N9pm94sJ4GVSL956gvCNR7YVY+1plgVl7Bvvdun4xl2Vkx1HatfSNQHazPzv0yG6kEXYJ99Hm7063j2HuNdP16IZ8hip3CB73P9bX2o+Q8Nh7wp81s/kCbNFzXc5uHqvPcH8EjUM+CQL0HZuU8s/JZ6B4R8MYw3azw93EEaofUoFMyrEZqvR6TMdAU51unv/caI7ZnqV0rHZafETz402Y2f2BFxKgeKin2zxugd/QLBOrzYVbOPSuvQvpEFqPOGB7p4QjUAaxEyLcFSViyTUkcaeyzrVMydOiePNBKan79pODBnzaz+QMrKcb7c1sOJMlfELH5R5mBE+KvVhP5vejTco2AsvH6owWq9Mi7+tSnYeWUWbnFOnMzo2PmjWEQrKN3pRGoA5iHThVZTtj3PnEtZlunxHvost2JgTWCHISy8HdDrbJnj80R8KfNbP7AShJ4+y8BcqZDzvL5DjlYekEtpyN4eotl4/WnFKjSD3u9DI5j5iueY2ZlINvdNCuvon5ntB1DOZN/vtJ/cx/v7B2BOoDn0KXklH/2F/ls65S4D92JaxwhHpZlf7X3A3JnpTVAPTYe8KfNbP7ASoxpZWDI2Q+xtoZqzOtBwefpLWbvdfqT97b0p6O+gg8zX8zKzJlr3E2K02NPkRSj7XvtGIpALb8Ae+KEQB2ge+i+10TF1wcLcLZ1SryHLg6Gzreiq0hipy9Ssu8Nvzw2PfCnzWz+wJYk+p13UFUfiLktXst2j3yvrL2oxFqzxLLx+iNfaCKN68A1mPliVmZijb5g/5LYSB/3xHC9g7rda/5spS8EEKgDmIduSYRu7r3ga2Zbp8Rz6MqCrL1/JaN30DzN4EzDwJ82s/kDe1J/qAnUdbh4BeEIrt5i9V6nP7H+Qq3EPfrrEI5h5otZGblzVj6Dsvd6Ylj7ZzfapnxdQKAOMNokc1MsktZitnVKPIcuFm1lwF1NKuq2LyX5xwsNe4+NBf60mc0fqGMNzZS/dK6tPvAyAvWxh/jnyj7hOkbzxax8LTYC1RHDpk0jDgjUAVqFJ0NYml7rG1IqztdYR+gdOln/2XcmRsVOwNMMWjaeOOPPPP7AcVJc1zsa+lxbfSB+biDHJb3eErBsvP5owZH2We+HcJ5WTq+aTbOtI/Tq+a5Z+Sx0vGqv1WKYbIrestxkaMUBgeogF+WO7a1pSZJQK/BcvMHGKuCJ1vHuPdk9VzBsfK0g+0vfyor3Kvvy2ARa8cGf+fyB8+hYl30j51TFP57/wZzscppZe0vPxutPXKcQqGVtlvuDczAra9w/K69kv6+6754Y6vPcE+kIVAAAAACYCgQqAAAAAEwFAhUAAAAApgKBCgAAAABTgUAFAAAAgKlAoAIAAADAVCBQAQAAAGAqEKgAAAAAMBUIVAAAuB39i72tX6IeyL/gu2HTQv+ifgCYHwTqQq8B6mZ69DFls62jnxKhn/6wGyIVO4/NlczmM/60ecUa+2R0rI/2Fi/W06BKpD8f9QWBei+fOk8D1t7l0Z7ldUpm7WX73rt9MpZlZ8VQ27X2/fECdX0u7pfZJCWgEsijz9KdbZ0oHIr96nXX19qPZfPYXMVsPuNPm1essU8mDdd1AOWhWuTwajwC9SwI1Hv45Hnq2XuNdP266JsR3SMC3hjGeTDQxz9aoKbmmwJtNUnr9RjogYY32zo1amunwptXPMzmM/60ecUa+xREjOqhkmL/vAFaq4mrQaA+n0+ep5691xixnQXpE1mMOmN4pIfzI/4FK8jyTUCSkWxTgkaa9mzr1KjFYHbxMJvP+NPmFWvsU0gx3veQciBJ/oKIzT/KDJwQf7WayO9Fn5ZrBJSN1x8tUKWPPlN4fzJWTj9hnrbqWWOduZnRMfPGMAjW0bvSCNQF80CpAsrJ+N4npcVs69SQoiqLaDcgKtfw2DyL2XzGnzavWGOfQhJ4+y8BpQjMfTLkYOmVtZyO4BnoZn92+lMKVOmZrevBOcx8xXP83vPUU8+BbHfiy91PUL8z2o6hnMk/X+m/uY939o5AXfAcqBT48s/+Ap5tnRqx8Jb1au8H5C5Faxh5bK5iNp/xp80r1tinEGNaGRjSG0OsraEa83pQ8HkGutmfnf7kvS198qiv4MPM1wfMU089B85c425SnB57iqQYbd9rx1AEavkF2BMnBOpC90B9r0mIrw8W12zraJJw6A98ayCM2lzBbD7jT5tXrLFPIol+5x1U1SdjbovXst0j3ytrvyqx1iyxbLz+yBeaSOM6cA1mvj5gnnrqORBr9AX7l8RG+rgnhusd1O1e82crfSGAQF0wD9QSZN24e4HVzLZOyejdKM/Bevbhm81n/GnzijX2aaQeUhOo63DxCsIRPAPd7M9Of2L9hVqJe/TXIRzjk+epq56X6x4RwDNQ9l5PDGv/7EbblK8LCNSF0QaYG16RkBazrSOkAtmvZ5Fv1TfsPTZnmM1n/GnzijX2iVhDM+UvDR+r/7yMQH3sIf65sk+4jtF8vcs8DVhrlsT6VILuldgIVEcMmzaNOCBQF1pFJQNWGlrr208qvNdap/aehedgeWyO8hM+zxZD/PHZwDgprusdDektcufD6pPxcwM5LvEMdMvG648WHGmf9Z4J5/nEeSr06lmfqVdDx6v2Wi2GyaboLctNhlYcPl6g5oLbsb3tLAkQasWbCzPYWMU5yTqb9yrIeukbTvFexR+PzRX8hM+zxRB/bBu4Bh1ryVMg51TFP/bRwZzscppZe2/PxutPXKcQqGVtlvuDc3zqPA14957sXufL9X5fdd89MdTnuSfSuYMKAAAAAFOBQAUAAACAqUCgAgAAAMBUIFABAAAAYCoQqAAAAAAwFQhUAAAAAJgKBCoAAAAATAUCFQAAAACmAoEKAAC3o3+xt/VL1AP5F3w3bFroX9QPAPODQB2g1yT1ExfKJynkZ4cb1J660EI396OPTZttnU+mVT+B3UCv2HlsvFBjn8ndcbaeBlUivfeoLwjUe2FWtunFZyb0vvWTsbw2wsjeEagO1mfnfpmNNB644nVJWO8wJTs7mTX02kef7TvbOp+Mp37Sa+1H5HlsPMxWG1etA23S8Fj7URYLTxykHoF6FgTqPaznkllZwxOf2dE9okbN5sjeEagdUoNOgR5ppB7bI43Z+kw89AMNeLZ1YEstrqlJPl+gUmOfiYhRPXSPCIMRrPxeCQL1+TAr2xyNz2xIn2h9odA2R/eOQB1gJLAe2yONX76FlMUhxTCy1mzrwJZa/dwmUKmxj8TqRxLrEH+pyyBi012SkIMHJ8Rfq1cmn5ZrBJSN1x8tUKWmqJ/n4Jl/gsf2HWZlyUh8ZqMWD03LZmTvCNQBxg5dKmDrRwB5rcHGrg9qLoTvftGUzLYObKnVz25YV+LrselBjX0mSeDtv9xIrwq1mPvWI+7SB3u9roenr1o2Xn9KgSr14+njcAxPToVPmZUlI/GZDc+d45bNyN4RqAOMBDYmqChqTS7yweIuD0tao/zzsUM3wzqwpVc/Ablj1BIGHhsNNfaZ6LuMgvS9UEOWWIj1enDYevqqZeP1J+9tqZmjvoIPT06FT5mVJSPxmYEUg5AnO1cem2g3sHcE6gDewKYD1xYF0cb4htEiH5bv9dDE148euknWgRVP/QSs4Txqo6HGPpP0ZcZ5B1X1QC0Is90jP72hZa1ZYtl4/ZEvapHGdeAaPDkNfNKsLPHGZ0Zk362ctWxG9o5AHcATWM8dq1OFvXxWD5J8iCoDoMZs60DCUz8lnuY92uCpsc8kxXMb4/j68iPY0K+8gnAET1+1bLz+5DuocY/+8wXHYFa28cRnZs7MnZG9I1AH6AU2FWw/8DFxlUHgwfIhN2DnmrOtA/76EUQ4tOw9Nhpq7DOxxEApXK1cvIxAfewh/rmyT7iOXk4/cVaW9OIzO5b4LLFsRvaOQB2gFVjvgZMh0PsGnw5m+1rSYFvfMmdbB+p466ck5aTdvFs21BhoUg7Wu0ISZ+lXVg+Mnxuo3RLPwLJsvP5oMSG1Rv08B2ZlfR3BU/OzomNRo2UzsncEqoNccDtSI88Br9psk5TWaouKzXpGEvMhr1wj20y2DtTx1o/c+clUcuGxCVBjYKFrqIxzzpPKUexrRt4sdrWaWQVyz8brT1ynEKhlvVFH18GsbK/Ti4+2n4G9z/ucHLMR7L0jUAEAAABgKhCoAAAAADAVCFQAAAAAmAoEKgAAAABMBQIVAAAAAKYCgQoAAAAAU4FABQAAAICpQKACAAAAwFQgUAEA4Hb0Lz63fkF6IP/C/oZNC/2L+gFgfhCoA/SapH5SwvYJLMsz0Q1Gn2aim3vvcXAWV60TODtEvLTiHNgNvoqdx8YL/rSZzR9oo2N9pid4yE/fcQjUo74gUO+FWdnmrll5Bfveu3/yk8dGGNk7AtXB+kzgL7ORxgNXvC4J6x2mZDf2mDO9tveZxZrL1nHE5yo8cU6vdR6R57DxgD9tZvMH2qThsfajLBaeeKY9AvUsCNR7YFa2uXNWPgvdI2rUbI7sHYHaITXoFOiRRuqxPdKYrc/EQz/QgK9b51h8rqJ2TY+Y8dgcAX/azOYPrIgY1UM3xX5MGIxwR99AoD4fZmWbn56VVyF9ovWFQtsc3TsCdYCRwHpsjzR++RZSFocUw8haV61T8hOHrnbNnxQ8+NNmNn9gJcV4f/bLYSP5CyI23SV55DJwQvzVaiK/F31arhFQNl5/tECV/vdM4f3JtHKq8dhatdmCWfkcavHQtGxG9o5AHWDs0KUCtn4EkNcabOz6oOZC+O4XTclV65T8xKGrxXk31Cr78dgcAX/azOYPrCSBt/8SIOc65Cyf8ZCD5Zz3el0PT9+wbLz+lAJVet2dferT8ORU6NVPXotZOQWeO8ctm5G9I1AHGAlsTFDj21Uu8sHiLg9LWqP887FDd2adkp84dL04B+TOSmuAemw84E+b2fyBlRjTylCRcx1inc+4sot5PXjuPX3DsvH6k/e29Lc7e9Qn4smp0OsJzMqfJ8Ug5MnOlccm2g3sHYE6gDew6cC1h2e0Mb5htMiH5Xs9NPH1o4fu5Doldx86T5wD2a9GvD02PfCnzWz+wJYk+p13UNUZj7ktXst2j3yv1IeWtWaJZeP1R77QRBrXgWvw5DTg6QnR5sA5Z1Y+B9l3K2ctm5G9I1AH8ATWc2fnVGEvn9WDJB+iygCocdU6JXceOk+cSzxN7mgjDOBPm9n8gT3p7NcEavoRbOhX1hmPuTh47j19w7Lx+hPrL9RK3KO/DuEYnpx6egKzck7O9OeRvSNQB+gFNhVsP/AxcZVB4MHyITdg55pXrVNy16HzxlmQAduy99hY4E+b2fyBOpYYSPlL/co64y8jUB97EGF0RPSAj15OvT2BWTknlvgssWxG9o5AHaAVWO+BkyHQ+wafDmb7WtJgW98y71hHuOPQeeNcknxvN7mWjSeG+DOPP3CcFNf9jzGlX1lnPH5uIMclnr5h2Xj90WIi7ROR+ixaOfX2BGblnOhY1GjZjOwdgeogF9yO1MhzwKs22ySltdqDdbOekcR8yCvXyDY3rdOLj7Y/ijfOcockU/HZYxNo7R1/5vMHzqNjXfaEnFMV/9gDBnOyy2lm7Rs9G68/cZ1CoJa1We4PzsGsbK9z16y8kr3P+5wcsxHsvSNQAQAAAGAqEKgAAAAAMBUIVAAAAACYCgQqAAAAAEwFAhUAAAAApgKBCgAAAABTgUAFAAAAgKlAoAIAAADAVCBQAQDgdvQvPrd+QXog/8L+hk0L/Yv6AWB+niJQe81EP1Fg+6SS5RnbBqNP/WhdK7BrkhU7j40X/DkPMWyDP3AGHeveoybPkp++4xCoR31BoN7LTBrgqnq+8lz04jMT+967f/KTx0YY2fulAnV9du6X2XBiYRavy8Z6RZfsxh4H5rlWeq3zODWHjQf8OQ8xbIM/cIY0PNY+m8VCkcOr8QjUsyBQ72E2DaDX9j7fX3PZOo74zI7uETVqNkf2fplATY0sOTTScDy2VzWw2jqeweexOQL+nIcYtsEf8CJiVA/dFPsxYTBCrSauBoH6fGbTANZnokAeqIXr1jkWn9mQPtH6QqFtju79KT/iH3HAY3tVg6xd6yeHI/6chxi2wR/wkmK877PlsJH8BRGb7pI8chk4If5qNZHfiz4t1wgoG68/WqDK3ZxnCu9PppVTjcfWqs0WkuNSSEktj6x11TolI/GZjVo8NC2bkb1PIFBToq1b5XmtEw1QqF1r1wAf6KB6bI6AP+chhm3wB7wkgbf/EiA9OOQs9+OQg6W/13I6gmdeWDZef0qBmsWpYz7BMTw5FXr1k9ca1ACpZ6wCMoum777AKrlqnZKR+MyG585xy2Zk7z8uUONGGt9CPGrdS+9aAfkW3mq2HhsP+HMeYtgGf8BLjGllqEg/D7G2xELM68Fh65kXlo3Xn7w3xOkteHIq9HrCUQ1QCsu0RvnnYwL1zDolI/GZge0NgnquPDbRbmDvPypQU2G2h0y0MZT4CJ5rBayGN2rTA3/OQwzb4A+MkES/8w6q6u0xt8Vr2e6R7xVjsBlrllg2Xn/kC02kcR24Bk9OA56eEG0OnPMsLL9XgRlfPypQT65T4o3PjMi+Wzlr2Yzs/ccEqucOyJkCKPFcq8RzII4emgD+nIcYtsEfGCUN4ppATT+CDX3YKwhH8MwLy8brT6y/UCvLXR5vHcIxZtAA8lld01lwGnf4NFetU+KJz8yc6c8je/8RgZoS23cwbrDSMEfwXkuQZtyy99hY4M95iGEb/IEjWGIg5S/1Ya8gHMEzsCwbrz9ZoD72IMLo7I0PsJlBA1g+lLVQvm5x1TolvfjMjiU+Syybkb3fLlC9hSnNsvdNNxXwuWuVeA5EywZ/fDZHIYb4E/DYwDgprvsfY0oftnp7/NxAjks8A8uy8fqjxUTaJyL1WcymASTP1pewwB3rCJ6anxUdixotm5G9XypQc2J2pIaXHavabDeT1moPoM16arPea8m36UwlaB6bAP7YNldADPGnZQPXoGMteQrknKr4x349mJNdTjOrQO7ZeP2J6xQCtazNcn9wjpk0QLYRQVy5Rra5aZ1efLT9DOx93ufkmI1g7/0pd1ABAAAAAI6CQAUAAACAqUCgAgAAAMBUIFABAAAAYCoQqAAAAAAwFQhUAAAAAJgKBCoAAAAATAUCFQAAAACmAoEKAAC3o3/xufUL0gP5F/Y3bFroX9QPAPPz8gK117j0k0hqT3/QTzg482QRTyPtPZFC+3ykse6a/0L16ReOJ2T00Gv0Hk83A728e2I4Euce+NNGr/UKNfaK3B3n/PQdh0A96kv8/IcL1N5s0nOndkaZlW1/vHj2PhOevHtzMbL3lxWo63N6v8zmloK6PnIrFdf2sVrRpvisFOBo4Xn8CWifNCl5hc+/vv79cSazJO3Dvo7Q88eDjpn3Gco/iSfvnhh649wDf9ro679Cjb0iqf+sPfJo/xnBI1DPEvf1oQKVWdnG26N6/njw7n0mPHn35OLI3l9SoKbNp8NjNTcJ0GagOhrhkWbp8SfadQ6C9VmdfA+eQ+c9mC0sn2NRv9BAqO3jrhjWwJ+Vd6mx2ZGeqUV/yuFWrFyJld8r+VSByqzsc18f8+19drTvnlwc3fvL/4jf2mxS6/um2mtUZwun9fkwUHt3fGpD98gg9hwojz895FvRtrmlhvfMoXY1tbzd1bhq4M/Ku9TY7KRc7eMpsQ7xlzoIfSMNoJCDByfEX6tnJp+WawSUjdcf3felpj6pfqw4Myv7PeqKWVlyNnY/Sc33kVyM7P3NBep2qAVSE7OLUZrx0WI0/clNXgbrgkpgbpzL68nf8Sa6a+wPagO+508PPdRy3L/r8Z+VWt57MfTaHAF/VtIar19js2P1RulpIfe5v4VcLj2uVhsjeAaW3Vd9/pRiK/fYxvXeETOGzMr1GgtlLLz+jOCp+Vmp5X0kFyN7f1+BKq8XRZSD2Dh0UfUfKHKhd+jKa3d97/g6QiqYtahG/GlRiocU3/LPryMePHnXMazhsfGAPyvvUmOzE3NTGbrSF0LOco9QdrE+BvpGiafvWDZef/LeZAYc9PWVGYkhs3LtUVfNypKzn/9JrLx7czGy97cVqOk9KayFxwH8MppwIAX+3DC3/BFf9DC17g6JD1f4FMh+LXv3+tMj23/X9/EK4sEbYx3DozY98GfLO9TYK5AG836wSM5C/nP+VH+LNVK8lu0e+Vmp9xVrzRLLxuuPiI5I4zrvTCvOzMqV7Ney96tmZUkrFzNjxXgkFyN7f2uBWkM3LkF/azpK79DtElsUufXZlOzz3w7jOurQtfwpX7eQwtT+nTm8dzKa9zKGtfcDHhsL/Nnz6jX2KqR41gTqOqCbPcrZgzWeHm73VZ8/sY5DzcU9+uv5nfDEucTKKbMycab/jOZiBqy8j+ZiZO8fJVDLRrt5fWlaVxSL5Y/1ekp6SqJ1EJLNuUEsa8v1Pf6Ur1s01zkoiu5iNO86hjU8Nhb4U+eVa+yVsO5IpzqQHlXPhSVmPFhrllg2Xn/KWkk9br/Pd8cTZ0HOKbPS50/5uoeRXMxAK++juRjZ+8cIVH0LOr8+cODSN4K2bcufdK01YTqx+bNF0efDUhnEHn+E2reZnj8lrWtJDKWZWYNuJkbyLtRiqGnZeGKIP21/XqnGXpGUg6InqL5p9bf4uYFaKfH0cMvG608clkUPlVr7pPrxxDnArNyuG+j5U3J277PRy/toLkb2/rICNRfBjrWIkoLfvy6sga1TNq+NbSWwHn8CW58qTaDmU+V6PX/0daxi6PkT6F0r2kgRL0wtTp1598TQG+dWDPGn7U+2eaEae2V0zso45zypHMX+Z+TNYlcbGauH7228/sR1imFZ1tu71xGzsu3PrsYqNjW7I7PSu/dZ8Obdk4sje3/5O6gAAAAA8F4gUAEAAABgKhCoAAAAADAVCFQAAAAAmAoEKgAAAABMBQIVAAAAAKYCgQoAAAAAU4FABQAAAICpQKACAMDt6AcvWL8gPZB/SXrDpkX8fOWpNgAwLy8vUHuNSz/9ofbUEP2EgzNPFvE00t4TcbTPRxrrrvkv1PZ21RN6PHu/gl6+PHsfiU8P/Gkzmz/QRse69sScK8lPoXEI1KO+xM9/uEDt9Wc9d2pni1nZ9seLZ+8z4cm7Nxcje39Zgbo+L/jLbG4pqMXzYWNxbR+rFW2Kz0oBjhaex5+A9kmTkld5pu1gIad92NcRev548O79Cjz58uzdG58e+NNmNn+gTeo/a4882n9G8AjUs8R9fahAZVa28faWnj8e7pyVV+HJuycXR/b+kgI1bT4dHqu5SYA2g9DRCI80S48/0a5zEKzP6uR78Bw678Fs4d37s6hd866918CfNrP5AyvSM3fPPI+x34qVK7mjb3yqQGVW9rmr//z0rLwK7bsnF0f3/vI/4rc2m9T6vqn2GtXZwml9PnwT6f2IKn5bUf7VXuvhOVAef0Y4G7sj1K55V8OpgT9tZvMHVlKM9z2zFDCSv9A30gB65DJwQvzVaiK/F31arhFQNl5/dN+XuznPFN6zYcWZWdnvLe8wK6+i5vtILkb2/uYCdf/jh9TE7GKUZny0GE1/cpNP/7UaaW6cy+vJ3/EmumvsD7bfkH3+jPATh66Wr97evTZHwJ82s/kDK1ZvlHMdcpbPeMjBcs5rOR3B0zfsvurzpxRbucfe2KdmwIwhs3K9xkIZC68/I3hqflZqeR/Jxcje31egyutFEeUgNg5dVP0nvlX3Dl157a7vHV9HSAWzFtWIP17Ofv4Innzpvdfw2HjAnzaz+QMrMaaVoSvnOsQ6n3FlF/P6xL5h2Xj9yXv7UHEaGIkhs3LtLe8yK6/Cyrs3FyN7f1uBmt6Twlp4HMAvowkHUuDPDT3LH/GlfmdoTbY0BvHhCp8C2a9l715/RhgpvCvwxkbv/ahND/xpM5s/sCUN5v1gkViHvOW4qzMec1u8lu0e+V6p9xVrzRLLxuuPiI5I4zrvTCvOzMqV7Ney93eYlVdhxXgkFyN7f2uBWkM3LkF/azpK79DtElsUufXZlOzz3w7jOurQtfwpX/dw56EbzVe599r7AY+NBf60mc0f2JPOfk2grgO62aMOnntP37D7qs+fWH+hVuIe/XX4Toz2Zyuno2fZws4ps3JGrLyP5mJk7x8lUMtGu3l9aVpXFIvlj/V6SnpKonUQks2xgyDI2nJ9jz/l6x5GcnGG0Xzpvdfw2FjgT5vZ/IE6chek3h+lR9XPuCVmPHj6hmXj9Sf2tUVwyKDV+3x3RvqznC9mpc+f8nUPI7mYgVbeR3MxsvePEaj6FnR+feDApW8EbduWP+laa8J0YvNni6LPh6Vyp8jjj1D7NtPzp+Ts3q/iSIOs7V3TsmntHX/m8weOk+Ja9ATVN60zHj83kOMST9+wbLz+xGFZ9NC0z88Sqd7+zKzcrhvo+VNydu+z0cv7aC5G9v6yAjUXwY61iJKC378urIGtUzavjW0lsB5/AlufKk2g5lPlej1/9HWsYuj5E7hq72fx5suzd298WnvHn/n8gfPoWFf7oIp/7AGDOdnlNGP18L2N15+4TjEsy9os9/eOMCvb/uxqrGJTs5t5Vl6FN++eXBzZ+8vfQQUAAACA9wKBCgAAAABTgUAFAAAAgKlAoAIAAADAVCBQAQAAAGAqEKgAAAAAMBUIVAAAAACYCgQqAAAAAEwFAhUAAG4nP6FGMH5BeiD/kvSGTYv4+cpTbQBgXn5MoPYajn5qQ+1pH/rJBGeeCOJpgLqh6utpn480xF3TXqjtreePh14MPf6M+HwFs/mMP21escY+GR3r2hNzriQ/hcYhUI/6Ej//4QK1N+P0/Kqdrd5ZHqHnT0DXor6e9vkVZm7As/eZ8OTdm4uRvd8uUNfn/H6ZTSkFo3iuayyK7eOwok3xWSmc0YLx+BPQPmlS0CvPoh0swLQP+zpCzx8Pnhh6/PH6fAWz+Yw/bV6xxj6Z1MfWXnu0j43gEahnifv6UIHKzG3j7S09fzx49z4Tnrx7cnFk77cK1OR0KnqrKcnGNgPM0cCONDmPP9GuU8DWZ3XSPHgOi/dAjVLbx0/642E2n/GnzSvW2KcgvXf3zPMY+61YuZJaTVzNpwpUZm6fu/qPd++zo3335OLo3n/sR/yWk0ll75thr8GcTXjr8+EbRO9HS/FbhvKv9loPz0Hw+HOEWgzuOrxHmc1n/GnzijX2KaQY73tvKWAkf6H/pAH0yGXghPir1UR+L/q0XCOgbLz+6Pkhd3OeKbxnw4ozM7ffW66euWdj95PUfB/JxcjeJxWo+x8bpOZjF5E00aNFZPqTm3P6r9UAc8NbXk/+jje/XUN+sP1m6/PnCLUY9vzx2jyL2XzGnzavWGOfgtVjpTeGnOU+GXKw9MpaTkfwDCy7P/v8KcVW7tWN670jZgyZues1FspYeP0ZwVPzs1LL+0guRvY+n0CV14vk5803DktU6ye+DfcOS3ntru8dX0dIiV6LYcSfUTwx1P7U8NhcxWw+40+bV6yxTyHGtDJ0pb+EWOdeo+xiXg/2H0//smy8/uS9fag4DYzEkJm79pZnzNyzn/9JrLx7czGy9+kEanpPCmLhcXC+jOYZSAE7N6wsf8SX+h2dNUlyoMWHK3wKZL+WvXv9GcXrr/bnqM0VzOYz/rR5xRr7JNJg3g8WiXXIW4676pMxt8Vr2e6R75V6f7LWLLFsvP6I6Ig0rvPOtOLMzF3Jfi17f8bMbeViZqwYj+RiZO9TCtQauuEI+tvOUXqHZZeQojitz6Yknf9WF9dRh6XlT/m6h9EYlv7U3g94bM4wm8/40+YVa+zTSD2kJlDXAd3sdc5ervHMArs/+/yJ9RdqJe7RX4fvhCfOJVZOR8+yhZ3T95+5o7mYASvvo7kY2ftLCNSyQW5eX5rNFUm2/LFeT8lKwbcKONkcK2BB1pbre/wpX+8xGkPtTw2PzRlm8xl/2rxijX0ichek3mel19X7jyVmPHhmwWh/1v7E/rgIDhm0ep/vjifOgpwvZq7Pn/J1DyO5mIFW3kdzMbL36QWqvnWcXx84KEnJt21b/qRrrYHWCcmfLYo1F3nlDo/HH6H2LaTnT0nrWkeaTc0fjcfmKD/h82wxxB+fDYyT4lr0FtV/rT4ZPzeQ4xLPLLBsvP7EYVn04rTPzxKpnjgHmLnbdQM9f0rO7n02enkfzcXI3m8XqDl5O9bkJ+W9f11YA1KnbDob20pAPP4Etj5VDm/Np8r1ev7o61hJ7PkTaF3LG0OPP16fz/ITPs8WQ/yxbeAadKwlT4GcUxX/2EcHc7LLacaaBXsbrz9xnWJYlrVZ7u8dYea2/dnVWMWmZjc6cwPevc+CN++eXBzZ+4/dQQUAAAAAqIFABQAAAICpQKACAAAAwFQgUAEAAABgKhCoAAAAADAVCFQAAAAAmAoEKgAAAABMBQIVAAAAAKYCgQoAALeTn1AjGL8gPZB/SXrDpkX8fOWpNgAwLwhUJ/opCLWnj3hshLU5H3tco27utadaeJhtnU/mqvp519qgxu7h7jjnp9A4BOpRXxCo99L7QtHqdfkxmQatvlhjxv5z9gvXneh9V5805rARRvaOQHUQD1MRTElGeVA8Nvm9zWPBxgWqXtt6dnKP2db5ZK6qn3etDWrsHtLwWIdLFgtPHKQegXoWBOo9rOfyy8zpSK8rSXZjjwSdro854jM7ukfUqNkc2TsC9QCehtqyScl7CItY9GMC1Vo3HvqBBjzbOrDlSP28a21QY/cgYlQP3SPCYIRWrV8FAvX5pPpJdTKSU4/tkRq5qm9ct86x+MyG9InWFwptc3TvCNQDeAJs2UjiwhBIjX9QoC7fQsrikDVHhshs68CWI/XzrrVBjd2DJUQl1iH+Upeh/tIXpZCDByfEX6ufyp2rzO48+PzRAlVqivp5Dq2cajy2R74kzdx/RuIzG7V4aFo2I3tHoB5AilPfaSixbMpvXYcEqjqouRC++0VTMts6sOVI/bxrbVBj95DvzKt+VIrAPFwecZcB4+mHLVwCxbDx+lMKVKkfz4CEY3hyKvTqJ6+lvnT0mLn/jMRnNjx3jls2I3tHoB4gBr8o2Bo1m1zYS0Gnwj8uUNN65Z+PHboZ1oEtR+rnXWuDGrsHfZdRkIGyEajKLtbrwWHrGViWjdefvLelZo76Cj48ORV68/ToOZ+5/4zEZwZSDEKe7Fx5bKLdwN4RqIOkw9S+W1CzqSUlJfSgQP1eD018/eihm2QdWDlaP+9aG9TYPQzdQVXDRQvCbPfIz8qauxJrzRLLxutP2lvwoX0duAZPTgPueWrcjWsxc//xxmdGZN+tnLVsRvaOQB1AmlwrMZZNLvKiQafXBgXqknj9udr6LWZbBxJn6udda4MauwddT/n15UewYRB7BeEInoFl2Xj9iecqiJy4x3YPh/N4cuqZp3L2D4nAifuPJz4z4/nSYNmM7B2B6iQVYzuoLZuYrFjkFvvBUMNKbm7AjjUCs60DV9TPe9YGNXYPlhhIdZn6k5ULLQhHsNYssWy8/pS1Ev9c2SdcRy+nnnkaSH3PNxs1lg8z9J9efGYn5qWzd8tmZO8IVAdnxalF2fj1e+lg1teTa0mDbX3LnG0dqHNV/bxybVBjP0/KwXpXSOIsd7ms4RI/N1C7JZ6BZdl4/dFiQmqN+nkOrZzKWW7lO6Brz+KqvnHHOoKn5mdFx6JGy2Zk7wjUDjmYoeAqhAR4bKprxyTuBepmPSOJUgCta8y2DtS5vH5esDaosXmQO4y1OOc8qRxpQehBX2dlFcg9G68/WqCW9UYdXUcWZztUvqo221yktdp3T6/qG3et04uPtp+Bvc/7nByzEey9I1ABAAAAYCoQqAAAAAAwFQhUAAAAAJgKBCoAAAAATAUCFQAAAACmAoEKAAAAAFOBQAUAAACAqUCgAgAAAMBUIFABAOB29C8+t35BeiD/wv6GTQv9i/oBYH4QqE70UxBqT5Hw2Ahrc24/KcNCN/fe4+AsZlvnk7mqft61Nqixe7g7zvnpOw6BetQXBGpf5Of3F87OuB49fwK6FvX1tM9HcqyvIdT21vPHi2fvM+HJuzcXI3tHoDqIySmCKUVaJsljk9/bPO5tXKDqtb3PLNbMts4nc1X9vGttUGP3kIbH+ujBX7++/v15xPmZg9QjUM8S9/WhAnU9K19mnJMAWXtJOm/bR1CO9KgWHn8C2idNqtXC54O1mvbRn8M9fzx49z4Tnrx7cnFk7wjUA3gaassmJ9N5MEqsdWMRDTTg2daBLUfq511rgxq7BxkqWvTXxMqVtGr9Kj5VoKacptxZcZa8l4LDk5MjefP4E+06s9H6rBZKHjwC1StiW3j3Pjvad08uju4dgXoAT4AtG2kGYQgcKXr5FrJtJmnNkSEy2zqw5Uj9vGttUGP3kOppH0+JdYi/1GWovzSAQg4enBB/rX6afFquEdidB58/WqBKTX1S/Zg9JcZiHwcdM00rbx5anw9fPvUXJU3tC+qRL62eOezxZ4SzsftJar6P5GJk7wjUA0jDbhWsZVMm7ZBAVUMkD+/v/RBvMds6sOVI/bxrbVBj91De8Shfl4ESajEPl0fcZcB4+mELz8CybLz+lGJL6sczIN8JM4ZyntQ5supBeFbeZd0/X+m/1peOnMfl9eTv2ie8pP5SXOdBGQuvPyN4an5WankfycXI3hGoB4gioXMQaja6EaSDcVygpvXKP++bjMVs68CWI/XzrrVBjd1DKeLK12WgbASqsov1enDYegaWZeP1J+9tqZmjvr4yIzGUs9WaT5452ML2R4Rg0dt6vnd8HSGJq1WAjfjj5eznfxIr795cjOwdgTpISk77W2PNppYULTA85GH9vQ7t+PrRoT/JOrBytH7etTaosXtIg3nfj6T2NgJVDZdYs2Vtit0jPytr7kqsNUssG68/Ijoijeu8M604ryJs4SFWv4wvLAHPHOxh5zT5os917gPq/IsPV/gUyH4te/f6M0IrFzNjxXgkFyN7R6AOoL9Z1bBsasWcXhsUqEsh6M+NHpbZ1oHEmfp519qgxu5B11N+vRjQ1nDRgnAEz8CybLz+xHMVBEfcY7uHvysjwiBg5dQzBz3YOU311uqBzbxXaniUuI4SqJ6e7GU0FzNgzqbBXIzsHYHqJBVjO6gtm5SsFr5DZSU3N2DnwZxtHbiift6zNqixe5AvAvU7Rak/WbmI9ale82KtWWLZeP0payX+ubLPd8cTZ6F919C3Ro/RnKa8SR3WRWOyOfelVdaW63v8KV/3MJKLGWjlfTQXI3tHoDrwHMojB7ds/Pq9LEhqBbFcS5qHNVgCs60Dda6qn1euDWrs50k5WIeKxFmGjzVc4ucGarfEM7AsG68/cVgWX2ak1j6pfrzCQOc8v76cwd7nA62zLLT8Sdcq6lCJoPzZov9lYVn50urxR0i2tb5q+1Nydu+z0cv7aC5G9o5A7bAGv05ocB6b6tox8XuBulnPKgopmsY1ZlsH6lxePy9YG9TYPKQ7H/U45zypHMWhbOTNQl9nZRUCPRuvP1qglvX27nWUBdMOK87r68LmfFao1kh4r1ITHn8COvc7wVzzqXK9nj+7GqvY1Oxq4vSqvc+CN++eXBzZOwIVAAAAAKYCgQoAAAAAU4FABQAAAICpQKACAAAAwFQgUAEAAABgKhCoAAAAADAVCFQAAAAAmAoEKgAAAABMBQIVAABuRz94wfoF6YH8S9IbNi3i5ytPtQGAeUGgOtFPQag9fcRjI6zNef8kIA+6udeeauFhtnU+mavq511rgxq7h7vjnJ9C4xCoR31BoN5L7wvFO/cWa+/58Z8GrX7/k+jYWE9+8sZQ27X2jUB1EIVDUWwS4DKwHpv83uaxYOMCVa9tPTu5x2zrfDJX1c+71gY1dg9puK4DKA9VQ2hcgUegngWBeg/rufwyc/q2Pcqx9xrp+nM+6rSG7hEBbwzTTRi/5kGgHsDTUFs2KcGPJMWkjglUa92Y+IEGPNs6sOVI/bxrbVBj9yBiVA+VZw/QVq1fBQL1+aT6SXVi5fRde4tn7zVGbGdB+kQWo84Ypj4ypncQqAfwFJVlUw6BIwmTbyZSHPG1Zc2RITLbOrDlSP28a21QY/dgCVGJdYi/1GWov/RFKeTgwQnx1+qnyaflGoHdefD5owWq1BT18xzM/vUBvaVVzxrrzM2Mjpk3hkGw6i+/PRCoB5Dgt4Jt2ZTfKg4JVFXQuTi+90XSYrZ1YMuR+nnX2qDG7iHfmVf9qBSBefg+4i4D2NMPW3gGuil4nP6UAlXqxyMg4Bhmvj6gt3jqOZDt1Jep2anfGW3HUM7kn6/0X+uLpAaBeoCYoCIhNWo2OXFL0afEHheoab3yz/4DNds6sOVI/bxrbVBj96DvMgoySDcCVdnFej0o+DwD3bLx+pP3ttTMUV/Bh5mvD+gtnnoOnLnG3aQ4PfYUSTHavteOoQjUzbxyxAmBOkgSDu27BTWbWjJSYg8K1O+1KOLrg8U+2zqwcrR+3rU2qLF7GLqDqoaKFoTZ7pGflTV3JdaaJZaN15+0t+BD+zpwDWa+PqC3eOo5EGu0cwdxRiQ2Mp88MVzvoG73mj9b6QsBBOoA0uRa4tSyqSUivTYoUJek68/1Eq2ZbR1InKmfd60NauwedD3l14vh4hWEI3gGuil4nP7EcxXEQNxju4fDecx8fUBvcdXzct0jAngGSnHtiWHtn91om/J1AYHqJAWyU3QNm5jQmESL/WCoYRV/bsCONQKzrQNX1M971gY1dg/W0Ex1mfqTlYuXEaiPPcQ/V/YJ1zGar3fqLdaaJamf+2b+jET/l/h4Yti0acQBgergrDi1KBu/fi8Lksp6ci1psK1vY7OtA3Wuqp9Xrg1q7OdJOVjvaEic5c6HNWji5wZqt8Qz0C0brz9acEitUT/PoZXTd+1RQq+e9Zl6NXS8aq/VYphsit5i3FUtQaB2yMX2CGSNkACPTXXtmLC9QN2sZxX5UhCta8y2DtS5vH5esDaosXlIdzXqcc55UjnSgtCDvs7KOsR6Nl5/tEAt6406uo4s4HZsf4z7jj3Ku/dkZ981nI39vuq+e2Koz3NPpCNQAQAAAGAqEKgAAAAAMBUIVAAAAACYCgQqAAAAAEwFAhUAAAAApgKBCgAAAABTgUAFAAAAgKlAoAIAAADAVCBQAQDgdvQv9rZ+iXog/4Lvhk0L/Yv6AWB+Lheo+qkD+mkCu6ZUsfPYeMGfNrP544EYtsEfOIOO9bMfyWg9DapEBOpRXxCo99L7QtHqCfIIzPL9ktEzf1U9X3kuzn7hupN9790+GctrI4zs/VKBGouuuKg4vR807cd8eWw84E+b2fzxQAzb4A+cIQ2PdbhksVDk8Go8AvUsCNR7WJ8z/2Xm1NMTaiQ7W/jU0GsffQ7+Zes44jM7ukfUqNkc2ftTf8RfazyeQeOxOQL+tJnNHw/EsA3+gBcRo3roptiPCYMRajVxNQjU55PqJ9XJSE49tkdqxPpMFMgDtXDdOsfiMxvSJ1pfKLTN0b0jUPEnM5s/HohhG/wBLynGeyFaDhvJXxCx6S7JI5eBE+KvVhP5vejTco2AsvH6owWq3M15pvD+ZFo51XhsrdpsITkuhZTU8shaV61TMhKf2ajFQ9OyGdn7kwVqSmL5jXzXcCqb8NgcAX/azOaPB2LYBn/ASxJ4+y8BpQjMwyXkYBkwtZyO4BIoho3Xn1KgZnHqGJBwDE9OhV795LUGvwSlnrEKyCyavvsCq+SqdUpG4jMbnjvHLZuRvT9VoEYnO98w5Ftvq7l5bDzgT5vZ/PFADNvgD3iJMa0MFRkoIdaWWIh5PThsPQPLsvH6k/eGOL0FT06FXk/w3LGrUQrLtEb552MC9cw6JSPxmYHtDYJ6rjw20W5g708TqKno+gPEajCjNj3wp81s/ngghm3wB0ZIot95B1UNl5jb4rVs98j3ijHYjDVLLBuvP/KFJtK4DlyDJ6cBT0+INgfOeRaW36vAjK8fFagn1ynxxmdGZN+tnLVsRvb+FIE6enfDU4BHizSAP21m88cDMWyDPzBKGsQ1gZp+BBsGsVcQjuAZWJaN159Yf6FWlrs83jqEY3hy6ukJp0Tg8lld01lwGnf4NFetU+KJz8yc6c8je79coKak+QMvza9l77GxwJ82s/njgRi2wR84giUGUv7ScPYKwhE8A8uy8fqTBepjDyKMjoge8NHLqbcnxDxWvjR5sHwoa6F83eKqdUp68ZmdlxSoo4Mo4CnAlk16r35N/JnPn7MQQ/wJeGxgnBTX/Y8x5S6XNVzi5wZyXOIZWJaN1x8tJtI+EanPopVTb0/QtWchuWxdS/JsfQkL3LGO4Kn5WdGxqNGyGdn7ZQI1XzQkpoI4Kt9eMxUnPTaBzTWVDf7M589ZiCH+tGzgGnSsJU+BnFMVfy0IPexymlkFcs/G609cpxCoZW2W+4NzZHG2Q+WrarPNRVqr/SV0s55Rf1kQV66RbW5apxcfbT8De5/3OTlmI9h7f9r/JAUAAAAAcAQEKgAAAABMBQIVAAAAAKYCgQoAAAAAU4FABQAAAICpQKACAAAAwFQgUAEAAABgKhCoAAAAADAVCFQAALgd/YvPrV+QHsi/sL9h00L/on4AmJ/LBap+WoB+2sKuKVXsPDZe8KfNbP54IIZt8AfOoGPde9TkWfLTdxwC9agvCNS+yM/vL9TOVu8sj9DzJ6BrUV9P+3wkxyO9peePF8/eZ8KTd28uRvZ+qUCNmyguKsksN5Ne6zy+zGHjAX/azOaPB2LYBn/gDGl4rI8e/PXr69+fR77KHF6NR6CeJe7rQwXq+kz7LzPO8ZwW5yudt+0jKD1n2YPHn4D2SZNqtfD5YK16e0vPHw/evc+EJ++eXBzZ+1N/xF9rPJ5i8BbMKPjTZjZ/PBDDNvgDXmSo6LuUKfbPe1Z4rSau5lMFasppyp0VZ8n75kujIydH8ubxJ9p1zrv1WS2UPNzVf7x7nx3tuycXR/eOQMWfzGz+eCCGbfAHvKQY74VoKWAkf0HEpgH0yGXghPir1UR+L/q0XCOgbLz+aIEqd3OeKbxnw4pzisU+DjpmmlbePLQ+H+7a9f45R7yzp/yrvdbD01s8/oxwNnY/Sc33kVyM7P3JAjU1tjKxu4bzQP+IwGNzBPxpM5s/HohhG/wBL+Udj/J1GSghZ3m4hBwsA6aW0xE8A8uy8fpTiq0sTh0D8p0wY7jEQ58nqx6EZ+Vd1v3zlf6bz7wSOzmPy+vJ3/EvHL3e4vVnBE/Nz0ot7yO5GNn7UwVqVNCdgkkbaRe5x8YD/rSZzR8PxLAN/oCXGNPK0JWBEmKdh4uyi3k9OGw9A8uy8fqT9/ah4jQwEsMsOBoC1XOWW9j+iBBcr931vePrCLq3jPjj5eznfxIr795cjOz9aQI1baI/QLKzlcY4YtMDf9rM5o8HYtgGf2CENJj3g0ViHfKW466GS8xt8Vq2e+R7pS5mrDVLLBuvPyI6Io3rvDOtOK8ibOFxrr6MLywB71luYec0+VL/KcpaQyKixYcrfApkv5a9e/0ZoZWLmbFiPJKLkb0/RaDqbyA94mY6g8ZjY4E/bWbzxwMxbIM/MEoauDWBug5oa7jEXBwctp6BZdl4/Yn1F2pl+XGutw7fiRFhELByOnqWLeycpnrT65eCsJn3C+6klr3F40/5uofRXMyAlffRXIzs/XKBmpLmD7wkv2XvsbHAnzaz+eOBGLbBHziC3AWp3ylKg6Y5jA7mwjOwLBuvP1mgPvYgg1bv890ZEQZyvuq14Fujx2hOU96kDpN/Wiwlm2OiUdC9xeNP+bqHkVzMQCvvo7kY2fulAvVI8Xq+8bRs0nv1a+LPfP6chRjiT8BjA+OkuK5DRf/ozhou8XMDOS7xDCzLxutPHJbF3fa0z88SqV5hoHOeXx84yxLflm3Ln3Stog6VCMqfLXpAFpaVn6p4/BGS7ba39PwpObv32ejlfTQXI3u/TKCuTtaRRpBUdfFexUmPTWBzTWWDP/P5cxZiiD8tG7gGHWvJUyDnVMU/DuXBnOxymlmFQM/G609cpxiWZW2W+3tHsmDaYcV5fV3wnuWdbaUmPP4EdO53grnmU+V6PX92NVaxqdnVxOlVe58Fb949uTiy96f9T1IAAAAAAEdAoAIAAADAVCBQAQAAAGAqEKgAAAAAMBUIVAAAAACYCgQqAAAAAEwFAhUAAAAApgKBCgAAAABTgUAFAIDbyU+oEYxfkB7IvyS9YdMifr7yVBsAmJfLBap+WoB+SseuKVXsPDZe8KfNbP54IIZt8AfOoGNde2LOleSn0DgE6lFfEKj30vtCcVWNzbZOwNp7fvynway9bN97609+8sZQ27X2falAjYOoSIo4sh807Wdoe2w84E+b2fzxQAzb4A+cIQ3XdQDloVrk8Go8AvUsCNR7WJ/j/2XmVPcA69n/PaZbx7H3Gun6cz7qtIbuEQFvDOM8GOjjT/0Rf63xpI38zDDCnzaz+eOBGLbBH/AiYlQPlRT75w3QWk1cDQL1+aT6SXVi5dR6PQqXgfzMt05/7zVGbGdB+kQWo84YHunhCFT8yczmjwdi2AZ/wEuK8V6IlgNJ8hdEbP5RZuCE+KvVRH4v+rRcI6BsvP5ogSp3eF7pztUrYeVU4i7iJtmm+hrJxWzrlLTqWWOduZnRMfPGMAjW0bvSTxaoycnSqV3DeVBuzGtzBPxpM5s/HohhG/wBL0ng7b8ElCIwD9+Qg2UA13I6gmegm4LH6U8pUGWgegQEHMPMVzzHq2jJ4uZ7L3JazLZOiaeeA9nuxJe7n6B+Z7QdQzmTf77Sf3Mf7+z9qQI1bqRwvIZ86201N4+NB/xpM5s/HohhG/wBLzGmlYEhgzTE2hqqMa8HBZ9noFs2Xn/y3hCnt2DmqxAzSciUf/YLwtnWKfHUc+DMNe4mxemxp0iK0fa9dgxFoJZfgD1xeppATYOoP0CsBjNq0wN/2szmjwdi2AZ/YIQk+p13UNVQibktXst2j3yvbAfbzrYxqCwbrz/yhSbSuA5cg5kvETPfq6iJrw+KtdnWKfHUcyDW6Av2L4mN9HFPDNc7qNu9luK2fF14ikAdvbvhSdSZZOJPm9n88UAM2+APjJKGRU2grsPFKwhH8Ax0U/A4/Yn1F2ol7tFfh3AMM1+LaNF11hMqmtnWKXHVcyHeau/PTtl7PTGs/bMbbVO+LlwuUNMF28kpybd+W8l02FjgT5vZ/PFADNvgDxzBGpopf2n4eAXhCK6Bbgkepz9ZoD72IF+WXlUcvAKj+SrzU75uMds6JdaaJbE+laB7JTYC1RHDpk0jDpcK1NFBFPAkqmWT3qtfE3/m8+csxBB/Ah4bGCfFdb2jIaJV7nxYgyZ+biDHJZ6Bbtl4/dGCI+0TkfosWjmVniCxb91NlDy9wjpCr571mXo1dLxqr9VimGyK3rLcZGjF4TKBmpPyuGANcTQp5uK9ShI9NoHNNZUN/sznz1mIIf60bOAadKwlT4GcUxV/LQg97HKaWYdYz8brT1ynEKhlbZb7g3NkAbdj+2NcETRCLQet3pJtJlrHu/dk9zpfrvf7qvvuiaE+zz2R/rT/SQoAAAAA4AgIVAAAAACYCgQqAAAAAEwFAhUAAAAApgKBCgAAAABTgUAFAAAAgKlAoAIAAADAVCBQAQAAAGAqEKgAAAAAMBUIVAAAAACYCgQqAAAAAEwFAhUAAAAApgKBCgAAAABTgUAFAAAAgKn4369fv/99//3v33//1fnz9esfNvX3A9hgU3s/gA02tfcD2GBTez+ADTa19wPvbFMVqLUXAQAAAAB+CgQqAAAAAEwFP+LHpgo22NTeD2CDTe39ADbY1N4PYINN7f1AsKkK1NqLAAAAAAA/BQIVAAAAAKYCgQoAAAAAU4FABQAAAICpQKACAAAAwET837//B7jWpqpx9O2XAAAAAElFTkSuQmCC;imageBorder=#FCFCFC;strokeWidth=2;perimeterSpacing=2;clipPath=inset(0% 0% 4.89% 0%);" vertex="1" parent="1">
          <mxGeometry x="-60" y="40" width="520" height="303.33333333333337" as="geometry" />
        </mxCell>
        <mxCell id="gsH4NiV3uTiKRWeBx2M4-2" value="" style="rounded=1;whiteSpace=wrap;html=1;fontSize=16;fillColor=none;strokeColor=#6c8ebf;fillStyle=dashed;" vertex="1" parent="1">
          <mxGeometry x="-60" y="85" width="134" height="15" as="geometry" />
        </mxCell>
        <mxCell id="gsH4NiV3uTiKRWeBx2M4-3" value="" style="rounded=1;whiteSpace=wrap;html=1;fontSize=16;fillColor=#d5e8d4;strokeColor=#82b366;fillStyle=dashed;" vertex="1" parent="1">
          <mxGeometry x="92" y="85" width="109" height="15" as="geometry" />
        </mxCell>
        <mxCell id="gsH4NiV3uTiKRWeBx2M4-4" value="" style="rounded=1;whiteSpace=wrap;html=1;fontSize=16;fillColor=#ffe6cc;strokeColor=#d79b00;fillStyle=dashed;" vertex="1" parent="1">
          <mxGeometry x="213" y="85" width="103" height="15" as="geometry" />
        </mxCell>
        <mxCell id="gsH4NiV3uTiKRWeBx2M4-5" value="" style="rounded=1;whiteSpace=wrap;html=1;fontSize=16;fillColor=#f8cecc;strokeColor=#b85450;fillStyle=dashed;" vertex="1" parent="1">
          <mxGeometry x="328" y="85" width="84" height="15" as="geometry" />
        </mxCell>
        <mxCell id="gsH4NiV3uTiKRWeBx2M4-6" value="" style="rounded=1;whiteSpace=wrap;html=1;fontSize=16;fillColor=#e1d5e7;strokeColor=#9673a6;fillStyle=dashed;" vertex="1" parent="1">
          <mxGeometry x="414" y="85" width="44" height="15" as="geometry" />
        </mxCell>
        <mxCell id="gsH4NiV3uTiKRWeBx2M4-7" value="" style="rounded=1;whiteSpace=wrap;html=1;fontSize=16;fillColor=none;fillStyle=dashed;strokeColor=#36393d;" vertex="1" parent="1">
          <mxGeometry x="-60" y="70" width="100" height="15" as="geometry" />
        </mxCell>
      </root>
    </mxGraphModel>
  </diagram>
</mxfile>
